<svg width="72" height="72" viewBox="0 0 72 72" fill="none" xmlns="http://www.w3.org/2000/svg">
<rect x="11.2783" y="11.1211" width="76.7214" height="76.7214" rx="38.3607" stroke="#143FDA" stroke-opacity="0.04" stroke-width="21.3607"/>
<path d="M47.6553 51.2526L44.6095 48.2068C44.3498 47.947 44.0192 47.8172 43.6178 47.8172C43.2164 47.8172 42.8859 47.947 42.6262 48.2068C42.3664 48.4665 42.2366 48.797 42.2366 49.1984C42.2366 49.5998 42.3664 49.9304 42.6262 50.1901L46.6637 54.2276C46.947 54.5109 47.2776 54.6526 47.6553 54.6526C48.0331 54.6526 48.3637 54.5109 48.647 54.2276L56.6512 46.2234C56.9109 45.9637 57.0408 45.6332 57.0408 45.2318C57.0408 44.8304 56.9109 44.4998 56.6512 44.2401C56.3914 43.9804 56.0609 43.8505 55.6595 43.8505C55.2581 43.8505 54.9276 43.9804 54.6678 44.2401L47.6553 51.2526ZM39.722 62.2318C38.9428 62.2318 38.2758 61.9543 37.721 61.3995C37.1661 60.8446 36.8887 60.1776 36.8887 59.3984V39.5651C36.8887 38.7859 37.1661 38.1189 37.721 37.5641C38.2758 37.0092 38.9428 36.7318 39.722 36.7318H45.672C45.9789 35.8818 46.4925 35.197 47.2126 34.6776C47.9328 34.1582 48.7414 33.8984 49.6387 33.8984C50.5359 33.8984 51.3446 34.1582 52.0647 34.6776C52.7849 35.197 53.2984 35.8818 53.6053 36.7318H59.5553C60.3345 36.7318 61.0015 37.0092 61.5564 37.5641C62.1112 38.1189 62.3887 38.7859 62.3887 39.5651V59.3984C62.3887 60.1776 62.1112 60.8446 61.5564 61.3995C61.0015 61.9543 60.3345 62.2318 59.5553 62.2318H39.722ZM39.722 59.3984H59.5553V39.5651H39.722V59.3984ZM49.6387 38.5026C49.9456 38.5026 50.1994 38.4023 50.4001 38.2016C50.6008 38.0009 50.7012 37.747 50.7012 37.4401C50.7012 37.1332 50.6008 36.8793 50.4001 36.6786C50.1994 36.478 49.9456 36.3776 49.6387 36.3776C49.3317 36.3776 49.0779 36.478 48.8772 36.6786C48.6765 36.8793 48.5762 37.1332 48.5762 37.4401C48.5762 37.747 48.6765 38.0009 48.8772 38.2016C49.0779 38.4023 49.3317 38.5026 49.6387 38.5026Z" fill="#143FDA" fill-opacity="0.2"/>
</svg>
