<svg width="36" height="36" viewBox="0 0 36 36" fill="none" xmlns="http://www.w3.org/2000/svg">
<rect x="4" y="4" width="28" height="28" rx="14" fill="#001EEE" fill-opacity="0.08"/>
<rect x="2" y="2" width="32" height="32" rx="16" stroke="#001EEE" stroke-opacity="0.04" stroke-width="4"/>
<path d="M23 25H25V11H23V25ZM23 27C22.45 27 21.9792 26.8042 21.5875 26.4125C21.1958 26.0208 21 25.55 21 25V11C21 10.45 21.1958 9.97917 21.5875 9.5875C21.9792 9.19583 22.45 9 23 9H25C25.55 9 26.0208 9.19583 26.4125 9.5875C26.8042 9.97917 27 10.45 27 11V25C27 25.55 26.8042 26.0208 26.4125 26.4125C26.0208 26.8042 25.55 27 25 27H23ZM18 27C17.7167 27 17.4792 26.9042 17.2875 26.7125C17.0958 26.5208 17 26.2833 17 26C17 25.7167 17.0958 25.4792 17.2875 25.2875C17.4792 25.0958 17.7167 25 18 25C18.2833 25 18.5208 25.0958 18.7125 25.2875C18.9042 25.4792 19 25.7167 19 26C19 26.2833 18.9042 26.5208 18.7125 26.7125C18.5208 26.9042 18.2833 27 18 27ZM14 27C13.7167 27 13.4792 26.9042 13.2875 26.7125C13.0958 26.5208 13 26.2833 13 26C13 25.7167 13.0958 25.4792 13.2875 25.2875C13.4792 25.0958 13.7167 25 14 25C14.2833 25 14.5208 25.0958 14.7125 25.2875C14.9042 25.4792 15 25.7167 15 26C15 26.2833 14.9042 26.5208 14.7125 26.7125C14.5208 26.9042 14.2833 27 14 27ZM10 27C9.71667 27 9.47917 26.9042 9.2875 26.7125C9.09583 26.5208 9 26.2833 9 26C9 25.7167 9.09583 25.4792 9.2875 25.2875C9.47917 25.0958 9.71667 25 10 25C10.2833 25 10.5208 25.0958 10.7125 25.2875C10.9042 25.4792 11 25.7167 11 26C11 26.2833 10.9042 26.5208 10.7125 26.7125C10.5208 26.9042 10.2833 27 10 27ZM18 11C17.7167 11 17.4792 10.9042 17.2875 10.7125C17.0958 10.5208 17 10.2833 17 10C17 9.71667 17.0958 9.47917 17.2875 9.2875C17.4792 9.09583 17.7167 9 18 9C18.2833 9 18.5208 9.09583 18.7125 9.2875C18.9042 9.47917 19 9.71667 19 10C19 10.2833 18.9042 10.5208 18.7125 10.7125C18.5208 10.9042 18.2833 11 18 11ZM14 11C13.7167 11 13.4792 10.9042 13.2875 10.7125C13.0958 10.5208 13 10.2833 13 10C13 9.71667 13.0958 9.47917 13.2875 9.2875C13.4792 9.09583 13.7167 9 14 9C14.2833 9 14.5208 9.09583 14.7125 9.2875C14.9042 9.47917 15 9.71667 15 10C15 10.2833 14.9042 10.5208 14.7125 10.7125C14.5208 10.9042 14.2833 11 14 11ZM10 11C9.71667 11 9.47917 10.9042 9.2875 10.7125C9.09583 10.5208 9 10.2833 9 10C9 9.71667 9.09583 9.47917 9.2875 9.2875C9.47917 9.09583 9.71667 9 10 9C10.2833 9 10.5208 9.09583 10.7125 9.2875C10.9042 9.47917 11 9.71667 11 10C11 10.2833 10.9042 10.5208 10.7125 10.7125C10.5208 10.9042 10.2833 11 10 11ZM12.825 19L13.725 19.9C13.9083 20.0833 14 20.3125 14 20.5875C14 20.8625 13.9 21.1 13.7 21.3C13.5167 21.4833 13.2833 21.575 13 21.575C12.7167 21.575 12.4833 21.4833 12.3 21.3L9.7 18.7C9.5 18.5 9.4 18.2667 9.4 18C9.4 17.7333 9.5 17.5 9.7 17.3L12.3 14.7C12.4833 14.5167 12.7125 14.4208 12.9875 14.4125C13.2625 14.4042 13.5 14.5 13.7 14.7C13.8833 14.8833 13.975 15.1167 13.975 15.4C13.975 15.6833 13.8833 15.9167 13.7 16.1L12.825 17H18C18.2833 17 18.5208 17.0958 18.7125 17.2875C18.9042 17.4792 19 17.7167 19 18C19 18.2833 18.9042 18.5208 18.7125 18.7125C18.5208 18.9042 18.2833 19 18 19H12.825Z" fill="#001EEE"/>
</svg>
