<svg width="72" height="72" viewBox="0 0 72 72" fill="none" xmlns="http://www.w3.org/2000/svg">
<rect x="11.2773" y="11.1211" width="76.7231" height="76.7231" rx="38.3615" stroke="#16CC80" stroke-opacity="0.12" stroke-width="21.3615"/>
<path d="M35.1179 51.469C34.8109 51.2565 34.628 50.9672 34.5689 50.6013C34.5099 50.2353 34.5748 49.887 34.7637 49.5565L39.0846 42.6148C39.604 41.7884 40.3418 41.3457 41.2981 41.2867C42.2543 41.2277 43.0394 41.5641 43.6533 42.2961L45.3887 44.3148L48.7533 38.8607C49.2964 37.9634 50.0814 37.5089 51.1085 37.4971C52.1356 37.4853 52.9325 37.9162 53.4991 38.7898L55.3054 41.4815L59.2721 35.1773C59.4846 34.8232 59.7974 34.6047 60.2106 34.5221C60.6238 34.4395 60.9957 34.528 61.3262 34.7877C61.6332 35.0002 61.8162 35.2895 61.8752 35.6554C61.9342 36.0214 61.8693 36.3697 61.6804 36.7002L57.7137 43.0044C57.1707 43.878 56.3856 44.3148 55.3585 44.3148C54.3314 44.3148 53.5346 43.8898 52.9679 43.0398L51.1616 40.3482L47.7971 45.8023C47.3012 46.6287 46.5752 47.0773 45.6189 47.1481C44.6627 47.219 43.8776 46.8884 43.2637 46.1565L41.4929 44.1023L37.1721 51.0794C36.9596 51.4336 36.6467 51.652 36.2335 51.7346C35.8203 51.8172 35.4484 51.7287 35.1179 51.469ZM53.1804 57.9857C54.1721 57.9857 55.0103 57.6433 55.695 56.9586C56.3797 56.2738 56.7221 55.4356 56.7221 54.444C56.7221 53.4523 56.3797 52.6141 55.695 51.9294C55.0103 51.2447 54.1721 50.9023 53.1804 50.9023C52.1887 50.9023 51.3505 51.2447 50.6658 51.9294C49.9811 52.6141 49.6387 53.4523 49.6387 54.444C49.6387 55.4356 49.9811 56.2738 50.6658 56.9586C51.3505 57.6433 52.1887 57.9857 53.1804 57.9857ZM53.1804 60.819C51.4096 60.819 49.9043 60.1992 48.6648 58.9596C47.4252 57.72 46.8054 56.2148 46.8054 54.444C46.8054 52.6732 47.4252 51.1679 48.6648 49.9284C49.9043 48.6888 51.4096 48.069 53.1804 48.069C54.9512 48.069 56.4564 48.6888 57.696 49.9284C58.9356 51.1679 59.5554 52.6732 59.5554 54.444C59.5554 55.0579 59.4728 55.6541 59.3075 56.2325C59.1422 56.811 58.8943 57.3482 58.5637 57.844L61.3971 60.6773C61.6568 60.937 61.7866 61.2676 61.7866 61.669C61.7866 62.0704 61.6568 62.4009 61.3971 62.6607C61.1373 62.9204 60.8068 63.0502 60.4054 63.0502C60.004 63.0502 59.6734 62.9204 59.4137 62.6607L56.5804 59.8273C56.0846 60.1579 55.5474 60.4058 54.9689 60.5711C54.3905 60.7363 53.7943 60.819 53.1804 60.819Z" fill="#027A48" fill-opacity="0.4"/>
</svg>
