<svg width="14" height="14" viewBox="0 0 14 14" fill="none" xmlns="http://www.w3.org/2000/svg">
<path d="M6.99687 8.39687L2.09687 13.2969C1.91354 13.4802 1.68021 13.5719 1.39687 13.5719C1.11354 13.5719 0.880208 13.4802 0.696875 13.2969C0.513541 13.1135 0.421875 12.8802 0.421875 12.5969C0.421875 12.3135 0.513541 12.0802 0.696875 11.8969L5.59688 6.99687L0.696875 2.09687C0.513541 1.91354 0.421875 1.68021 0.421875 1.39687C0.421875 1.11354 0.513541 0.880208 0.696875 0.696875C0.880208 0.513541 1.11354 0.421875 1.39687 0.421875C1.68021 0.421875 1.91354 0.513541 2.09687 0.696875L6.99687 5.59688L11.8969 0.696875C12.0802 0.513541 12.3135 0.421875 12.5969 0.421875C12.8802 0.421875 13.1135 0.513541 13.2969 0.696875C13.4802 0.880208 13.5719 1.11354 13.5719 1.39687C13.5719 1.68021 13.4802 1.91354 13.2969 2.09687L8.39687 6.99687L13.2969 11.8969C13.4802 12.0802 13.5719 12.3135 13.5719 12.5969C13.5719 12.8802 13.4802 13.1135 13.2969 13.2969C13.1135 13.4802 12.8802 13.5719 12.5969 13.5719C12.3135 13.5719 12.0802 13.4802 11.8969 13.2969L6.99687 8.39687Z" fill="black" fill-opacity="0.6"/>
</svg>
